<?xml version="1.0" encoding="utf-8"?>
<!-- Generator: Adobe Illustrator 28.1.0, SVG Export Plug-In . SVG Version: 6.00 Build 0)  -->
<svg version="1.1" id="Layer_1" xmlns="http://www.w3.org/2000/svg" xmlns:xlink="http://www.w3.org/1999/xlink" x="0px" y="0px"
	 viewBox="0 0 360 360" style="enable-background:new 0 0 360 360;" xml:space="preserve">
<style type="text/css">
	.st0{fill:none;stroke:#FFFFFF;stroke-width:15;stroke-miterlimit:10;}
	.st1{fill:none;stroke:#FFFFFF;stroke-width:13;stroke-miterlimit:10;}
</style>
<path class="st0" d="M122.48,277.13l73.32,0.13c32-1.19,51.15-4.4,67.93-11.68c17.33-7.52,33.88-21.36,45.16-40.16
	c9.98-16.63,26.82-35.83,32.73-42.39c1.23-1.36,0.9-3.48-0.65-4.45c-16.44-10.34-54.11-2.64-64.36-0.28
	c-1.63,0.38-2.97,1.49-3.64,3.02c-3.26,7.44-13.76,30.27-24.05,40.31c-19.59,19.1-51.74,15.89-51.74,15.89"/>
<g>
	<g>
		<path d="M121.51,284.68C60.01,287.06,9.22,237.73,9.22,176.75h15c0,52.51,43.74,95,96.69,92.94c48.27-1.87,87.4-40.99,89.27-89.27
			c2.05-52.96-40.43-96.69-92.94-96.69c-29.22,0-56.17,13.33-73.94,36.57l-11.92-9.11c20.63-26.99,51.93-42.46,85.86-42.46
			c60.98,0,110.31,50.79,107.93,112.29C223,237.08,177.57,282.51,121.51,284.68z"/>
	</g>
	<g>
		<path d="M28.46,119.95l13.45-50.28c0.48-1.8,2.33-2.87,4.13-2.39l7.97,2.13c1.8,0.48,2.87,2.33,2.39,4.13l-7.48,27.96
			c-0.63,2.36,1.38,4.59,3.79,4.21l26.59-4.23c1.84-0.29,3.57,0.96,3.86,2.8l1.3,8.15c0.29,1.84-0.96,3.57-2.8,3.86l-49.41,7.86
			C29.84,124.54,27.83,122.31,28.46,119.95z"/>
	</g>
</g>
<circle class="st0" cx="117.24" cy="177.81" r="7.19"/>
<g>
	<g>
		<circle class="st1" cx="117.99" cy="119.16" r="22.62"/>
	</g>
	<g>
		<circle class="st1" cx="173.25" cy="160.4" r="22.62"/>
	</g>
	<g>
		<circle class="st1" cx="151.11" cy="225.7" r="22.62"/>
	</g>
	<g>
		<circle class="st1" cx="82.16" cy="224.82" r="22.62"/>
	</g>
	<g>
		<circle class="st1" cx="61.69" cy="158.97" r="22.62"/>
	</g>
</g>
<path class="st0" d="M224.03,236.4c0,0,13.79,22.69,12.45,37.86"/>
<path class="st0" d="M251.48,218.57c0,0,26.42-2.93,53.72,11.27"/>
<circle cx="11.53" cy="176.75" r="2.3"/>
<circle cx="21.93" cy="176.75" r="2.3"/>
<rect x="11.53" y="174.45" width="10.4" height="4.4"/>
</svg>
